<svg xmlns="http://www.w3.org/2000/svg" viewBox="0 0 16 16"><g id="icn-doc"><path d="M9.59,2h0L13,5.41V14H3V2H9.59m0-1H3A1,1,0,0,0,2,2V14a1,1,0,0,0,1,1H13a1,1,0,0,0,1-1V5.41a1,1,0,0,0-.29-.7L10.29,1.29A1,1,0,0,0,9.59,1Z" transform="translate(0 0)"/><rect x="5" y="11" width="6" height="1" fill="#fff"/><polygon points="11 11 5 11 5 12 11 12 11 11 11 11"/><rect x="5" y="9" width="6" height="1" fill="#fff"/><polygon points="11 9 5 9 5 10 11 10 11 9 11 9"/><rect x="5" y="7" width="6" height="1" fill="#fff"/><polygon points="11 7 5 7 5 8 11 8 11 7 11 7"/><rect x="5" y="4" width="4" height="1" fill="#fff"/><polygon points="9 4 5 4 5 5 9 5 9 4 9 4"/></g></svg>